<?xml version="1.0" encoding="utf-8"?>
<!-- Generator: Adobe Illustrator 16.0.0, SVG Export Plug-In . SVG Version: 6.00 Build 0)  -->
<!DOCTYPE svg PUBLIC "-//W3C//DTD SVG 1.1//EN" "http://www.w3.org/Graphics/SVG/1.1/DTD/svg11.dtd">
<svg version="1.1" id="Icon" xmlns="http://www.w3.org/2000/svg" xmlns:xlink="http://www.w3.org/1999/xlink" x="0px" y="0px"
	 width="340.16px" height="340.16px" viewBox="0 0 340.16 340.16" enable-background="new 0 0 340.16 340.16" xml:space="preserve">
<path fill="#FFFFFF" d="M297.639,0H42.52C19.04,0,0,19.04,0,42.52v255.12c0,23.48,19.04,42.521,42.52,42.521h255.12
	c23.48,0,42.521-19.04,42.521-42.521V42.52C340.16,19.04,321.12,0,297.639,0z M129.15,251.98H93.81V131.16h35.34V251.98z
	 M111.25,118.02c-11.16,0-18.61-7.91-18.37-17.67c-0.24-10.24,7.2-17.91,18.6-17.91s18.61,7.67,18.84,17.91
	C130.32,110.11,122.88,118.02,111.25,118.02z M265.42,251.99h-35.35v-67.28c0-14.66-5.12-24.66-17.91-24.66
	c-9.76,0-15.58,6.75-17.91,13.26c-0.93,2.329-1.39,5.59-1.39,8.85v69.83h-35.34v-81.7c0-14.19-0.07-29.12-0.53-39.12h31.3
	l0.62,18.42h0.7c12.29-19.06,23.819-16.73,35.12-16.73c23.25,0,40.699,13.93,40.689,47.42V251.99z"/>
</svg>
